<?xml version="1.0" standalone="no"?><!DOCTYPE svg PUBLIC "-//W3C//DTD SVG 1.1//EN" "http://www.w3.org/Graphics/SVG/1.1/DTD/svg11.dtd"><svg t="1756957113315" class="icon" viewBox="0 0 1024 1024" version="1.1" xmlns="http://www.w3.org/2000/svg" p-id="5395" xmlns:xlink="http://www.w3.org/1999/xlink" width="200" height="200"><path d="M288 768v115.2c0 25.6 19.2 44.8 44.8 44.8h556.8c25.6 0 44.8-19.2 44.8-44.8v-198.4s0-6.4-6.4-6.4h-83.2c-38.4 0-70.4-32-70.4-70.4 0-38.4 32-70.4 70.4-70.4h83.2s6.4 0 6.4-6.4V332.8c0-25.6-19.2-44.8-44.8-44.8H768C768 198.4 697.6 128 608 128S448 198.4 448 288H332.8c-25.6 0-44.8 19.2-44.8 44.8V448C198.4 448 128 518.4 128 608S198.4 768 288 768z m0-249.6h70.4V358.4h160V288c0-51.2 38.4-89.6 89.6-89.6 51.2 0 89.6 38.4 89.6 89.6v70.4h160v108.8h-19.2c-76.8 0-140.8 64-140.8 140.8 0 76.8 64 140.8 140.8 140.8h19.2v108.8H358.4v-160H288c-51.2 0-89.6-38.4-89.6-89.6 0-51.2 38.4-89.6 89.6-89.6z" p-id="5396" fill="#0764f5"></path></svg>